<svg width="60" height="66" viewBox="0 0 60 66" fill="none" xmlns="http://www.w3.org/2000/svg">
<path fill-rule="evenodd" clip-rule="evenodd" d="M36.2654 46.9327C35.8361 47.7315 35.2022 48.363 34.4672 48.8227C33.3822 49.4955 32.1004 49.8315 30.7214 49.9668V51.1918C30.7214 51.8358 30.1988 52.3585 29.5548 52.3585C28.9108 52.3585 28.3881 51.8358 28.3881 51.1918V50.0096C26.6902 49.8797 25.235 49.3283 24.1492 48.4097C22.8939 47.3582 22.1869 45.8119 22.1946 44.1444C22.1946 43.5432 22.6823 43.0555 23.2835 43.0555C23.8848 43.0555 24.3724 43.5432 24.3724 44.1444C24.3802 45.2255 24.7808 46.0834 25.5554 46.7476C26.1986 47.292 27.153 47.6817 28.3881 47.8062V39.5687C28.3658 39.5631 28.3434 39.5574 28.321 39.5518C28.286 39.543 28.2508 39.5342 28.2157 39.5254C28.1074 39.4984 27.9984 39.4711 27.8903 39.4427C26.6809 39.1192 25.4745 38.7466 24.4292 38.0637C23.8342 37.6733 23.2921 37.1685 22.8939 36.5191C22.4373 35.7771 22.1923 34.8663 22.1946 33.8451C22.1954 32.5625 22.6496 31.0863 23.7976 29.9079C24.8126 28.8611 26.3565 28.1268 28.3881 27.9798V26.8513C28.3881 26.2073 28.9108 25.6846 29.5548 25.6846C30.1988 25.6846 30.7214 26.2073 30.7214 26.8513V28.0436C31.85 28.1727 32.8533 28.4395 33.7089 28.8564C34.9331 29.4498 35.8672 30.3583 36.393 31.4651C36.7445 32.2008 36.9149 33.0128 36.9149 33.8451C36.9149 34.4463 36.4272 34.9339 35.826 34.9339C35.2248 34.9339 34.7371 34.4463 34.7371 33.8451C34.7371 33.3029 34.6305 32.8269 34.4291 32.4038C34.2261 31.9807 33.9274 31.6051 33.4989 31.2714C32.8821 30.7899 31.9635 30.4065 30.723 30.2315V37.9105L30.8256 37.9375C30.9625 37.9735 31.0994 38.0094 31.2363 38.0474C32.4598 38.3935 33.6832 38.8213 34.7301 39.5897C35.3251 40.0284 35.8579 40.5899 36.2421 41.2899C36.6831 42.0895 36.9172 43.0516 36.9156 44.1444C36.9164 45.1921 36.6971 46.1363 36.2654 46.9327ZM24.8624 35.5437C25.1611 35.9505 25.6223 36.2943 26.2578 36.5945C26.8543 36.8807 27.5901 37.1071 28.3896 37.3194V30.1669C27.762 30.2253 27.2292 30.3489 26.7859 30.5177C26.1652 30.7549 25.7071 31.0723 25.3555 31.4308C24.6579 32.1409 24.3732 33.0673 24.374 33.8451C24.3794 34.6446 24.5661 35.1346 24.8624 35.5437ZM34.2175 42.1463C33.9002 41.6687 33.4374 41.2853 32.809 40.9516C32.2241 40.6374 31.5046 40.3908 30.723 40.1692V47.7704C31.395 47.6903 32.0094 47.5596 32.522 47.3636C33.4102 47.0214 33.9935 46.5539 34.3498 45.8991C34.5878 45.4573 34.7371 44.8981 34.7379 44.1444C34.7348 43.2305 34.531 42.6269 34.2175 42.1463Z" fill="#0C8543"/>
<path d="M12.1543 32.5344C11.5632 32.2778 10.8764 32.5492 10.6198 33.1403C10.3055 33.8652 10.0318 34.6064 9.80621 35.3617C9.62187 35.9792 9.97265 36.6294 10.5902 36.8138C11.2078 36.9981 11.858 36.6473 12.0423 36.0298C12.2399 35.3663 12.4802 34.7122 12.7602 34.0682C13.0169 33.4779 12.7454 32.7911 12.1543 32.5344Z" fill="#0C8543"/>
<path d="M12.8372 29.1893C14.8509 26.3061 17.4883 23.8428 20.3762 22.0174C20.9207 21.6728 21.6409 21.8354 21.9862 22.3814C22.33 22.9258 22.1667 23.6461 21.6222 23.9898C18.9941 25.6488 16.5706 27.9161 14.7513 30.5247C14.3819 31.0536 13.6554 31.1827 13.1266 30.8141C12.5977 30.4446 12.4686 29.7182 12.8372 29.1893Z" fill="#0C8543"/>
<path fill-rule="evenodd" clip-rule="evenodd" d="M57.5556 41.0822C57.5556 44.3131 56.9598 47.8948 55.9953 50.1464C57.897 51.7036 59.1111 54.0649 59.1111 56.7078C59.1111 61.3939 55.3039 65.1918 50.6077 65.1918C47.9228 65.1918 45.5319 63.9458 43.9732 62.006C39.7647 64.0267 34.8312 65.1918 29.5556 65.1918C24.2799 65.1918 19.3464 64.0267 15.1371 62.006C13.5784 63.9458 11.1876 65.1918 8.50189 65.1918C3.80644 65.1918 0 61.3939 0 56.7078C0 54.0633 1.21411 51.702 3.11578 50.1449C2.15211 47.8956 1.55478 44.3116 1.55556 41.0807C1.55867 28.7762 12.0999 17.2348 22.7702 13.5364C22.7595 13.5062 22.7484 13.476 22.7373 13.4459C22.7024 13.3512 22.6674 13.2564 22.645 13.1584L20.1351 2.11478C19.838 0.811223 20.3817 5.587e-07 21.3951 5.587e-07C21.6798 5.587e-07 22.0002 0.0630008 22.3494 0.197557L26.6529 1.85345C27.4509 2.16067 28.504 2.31389 29.5563 2.31389C30.6087 2.31389 31.6618 2.16067 32.4598 1.85345L36.7632 0.197557C37.1132 0.0630008 37.4337 5.587e-07 37.7176 5.587e-07C38.731 -0.000777534 39.2747 0.811223 38.9776 2.11478L36.4677 13.1584C36.4443 13.2607 36.4076 13.3596 36.371 13.4586C36.3614 13.4845 36.3518 13.5105 36.3424 13.5364C47.012 17.2348 57.5556 28.7762 57.5556 41.0822ZM26.4164 12.2111L26.5316 12.3029H32.5796L32.6947 12.2111L34.2588 5.327L33.8559 5.48178C32.3073 6.07756 30.6623 6.202 29.5556 6.202C28.4488 6.202 26.8038 6.07756 25.2576 5.48256L24.8523 5.327L26.4164 12.2111ZM8.50111 61.3037C9.90733 61.3037 11.2202 60.6721 12.1053 59.5708C12.313 59.3126 12.551 59.0893 12.8053 58.898C11.8269 58.2182 10.8516 57.4404 9.90189 56.5732C8.46378 55.2541 7.22633 53.8611 6.223 52.4627C6.03633 52.7139 5.82789 52.9503 5.57822 53.1557C4.50411 54.0346 3.88811 55.3303 3.88811 56.7086C3.88811 59.2426 5.957 61.3037 8.50111 61.3037ZM16.3038 58.3014C16.478 58.3559 16.6507 58.4197 16.8194 58.5006C20.6399 60.3338 25.0437 61.3029 29.554 61.3029C30.4656 61.3029 31.3693 61.2531 32.2677 61.1746L32.0452 59.5809C32.0017 59.262 32.2241 58.9672 32.543 58.9221C32.8619 58.8786 33.1567 59.1002 33.2018 59.4199L33.4297 61.0524C34.2938 60.9443 35.1501 60.8043 35.9917 60.6254L35.5748 58.3497C35.5172 58.0331 35.7272 57.729 36.0446 57.6707C36.3611 57.6131 36.6652 57.8231 36.7228 58.1404L37.128 60.354C38.003 60.1308 38.8609 59.8718 39.6986 59.5716L38.8733 57.3308C38.7621 57.0282 38.9169 56.6938 39.2194 56.5818C39.522 56.4706 39.8564 56.6253 39.9684 56.9279L40.7874 59.1508C40.8793 59.1164 40.9718 59.0795 41.0649 59.0424L41.0954 59.0302C41.4314 58.8887 41.7659 58.7417 42.0941 58.5869C42.4192 58.429 42.7474 58.2594 43.0811 58.072L41.2557 55.0744C41.0877 54.7999 41.1748 54.4413 41.4501 54.2733C41.7254 54.1053 42.084 54.1924 42.252 54.4678L44.0798 57.4684C44.8272 56.9909 45.5832 56.4426 46.3322 55.832L43.6917 52.297C43.4988 52.0396 43.5517 51.674 43.8091 51.4811C44.0673 51.2882 44.4329 51.3411 44.6258 51.5986L47.2212 55.0737C47.2578 55.0408 47.2947 55.0091 47.3316 54.9774C47.3794 54.9364 47.4271 54.8954 47.474 54.852C50.0967 52.4572 51.9594 49.7723 52.7839 47.579C53.3167 45.8103 53.6667 43.3253 53.6667 41.0822C53.6667 35.2178 50.6909 28.9434 45.5031 23.8669C40.663 19.1326 34.5528 16.1918 29.5556 16.1918C24.5583 16.1918 18.4489 19.1326 13.6096 23.8661C8.42178 28.9427 5.446 35.217 5.44445 41.0814C5.44367 43.8029 5.957 46.9008 6.69044 48.6142C6.73205 48.7125 6.76244 48.8127 6.79284 48.9129C6.80166 48.9419 6.81047 48.971 6.81956 49C7.805 50.8744 9.39867 52.9527 11.4784 54.8512C13.0667 56.3072 14.7319 57.4677 16.3038 58.3014ZM47.0042 59.57C47.8893 60.6713 49.2022 61.3029 50.6077 61.3029C53.1526 61.3029 55.2222 59.2418 55.2222 56.7078C55.2222 55.3296 54.6062 54.0353 53.5321 53.1549C53.2443 52.9192 53.0071 52.6447 52.8033 52.3499C51.7868 53.7857 50.5252 55.2176 49.049 56.5717C48.1242 57.4163 47.1761 58.1747 46.2233 58.8412C46.5096 59.045 46.7756 59.2853 47.0042 59.57Z" fill="#0C8543"/>
</svg>
