<svg width="70" height="46" viewBox="0 0 70 46" fill="none" xmlns="http://www.w3.org/2000/svg">
<path d="M70 12.2403C69.9984 11.066 69.6487 9.8635 68.8529 8.85432L63.4301 2.01228C62.898 1.34101 62.2178 0.837942 61.4834 0.503831C60.7473 0.170481 59.9516 0.000761073 59.1458 0C58.1918 0 57.2099 0.242022 56.3358 0.778578L51.0479 4.02227C50.8556 4.14176 50.5508 4.26886 50.1932 4.35562C49.8357 4.44314 49.427 4.49185 49.0283 4.49109C48.4086 4.49566 47.8192 4.36475 47.5027 4.20721L42.325 1.73525C41.3524 1.27556 40.3131 1.10051 39.2816 1.09747C38.5394 1.09747 37.7987 1.1926 37.0805 1.38744C36.3639 1.58379 35.6689 1.87757 35.0337 2.31671L34.8096 2.47196C34.3582 2.25125 33.7905 1.97194 33.1661 1.66523C32.0059 1.10812 30.7332 0.908721 29.4472 0.900349C28.2854 0.905677 27.1252 1.07463 26.0448 1.52215L22.5182 3.00548C22.0831 3.19574 21.2517 3.35176 20.4296 3.34568C19.6082 3.35176 18.7768 3.19574 18.3425 3.00548L14.8128 1.52138C14.0551 1.20402 13.2663 1.07311 12.4923 1.07311C11.6035 1.07387 10.7294 1.24588 9.90805 1.57238C9.08981 1.90268 8.31733 2.38977 7.68756 3.08235L1.26033 10.1793C0.419601 11.1063 -0.00153917 12.2784 1.19944e-05 13.4284C-0.00309033 14.7998 0.595657 16.1804 1.74196 17.1447L7.08649 21.6381L4.82179 24.0271L4.8249 24.0293C3.90816 24.9807 3.44824 26.2106 3.44979 27.4222C3.44824 28.7191 3.97408 30.0342 5.01026 31.0031L5.58729 31.5434C6.00068 31.9308 6.47533 32.2177 6.9686 32.4392C6.8003 32.943 6.6987 33.4636 6.6987 33.9834C6.69715 35.281 7.22144 36.5969 8.25916 37.5658L8.8362 38.1069C9.80877 39.0172 11.0737 39.4715 12.3139 39.47C12.7032 39.4707 13.0926 39.4213 13.4757 39.3315C13.7348 39.9259 14.1163 40.4815 14.6228 40.9526L15.2014 41.4952C16.174 42.4062 17.4389 42.8598 18.6791 42.8583C19.3438 42.8591 20.0139 42.7289 20.6405 42.4701C20.8887 42.9314 21.2114 43.3636 21.6162 43.7411L22.1963 44.2838C23.1674 45.194 24.4323 45.6484 25.674 45.6469C26.9949 45.6484 28.3358 45.1339 29.3231 44.1171L31.2908 42.0926L34.1721 44.6879L34.1612 44.6788C35.1276 45.5616 36.3716 46.0015 37.5924 46C38.9341 46.0015 40.2945 45.4695 41.2857 44.4246L41.8294 43.8492C42.0993 43.5638 42.3141 43.2502 42.5034 42.9245L43.0137 43.388C43.9801 44.2693 45.2225 44.7062 46.4418 44.7046C47.7866 44.7069 49.147 44.1757 50.1382 43.1292L50.6819 42.5554C51.2271 41.9808 51.5846 41.3027 51.7979 40.5933C51.9522 40.6086 52.105 40.6352 52.2602 40.6352C53.605 40.6375 54.9654 40.1062 55.9566 39.059L56.4987 38.4859L56.5003 38.4844C57.3984 37.5361 57.8451 36.3153 57.8436 35.1189C57.8436 35.0086 57.8342 34.899 57.8273 34.7886C58.6618 34.5451 59.4451 34.0892 60.078 33.421L60.6217 32.8456C61.5214 31.8958 61.9681 30.6766 61.9665 29.4794C61.9681 28.2213 61.4694 26.9519 60.4968 25.9929L59.95 25.3803L68.5923 15.9582C69.5633 14.8927 69.9969 13.5539 70 12.2403ZM36.2638 6.12207L37.2728 5.42264C37.4605 5.29098 37.7607 5.15018 38.1182 5.05352C38.4773 4.95535 38.8891 4.90131 39.2831 4.90207C39.833 4.89826 40.3434 5.01395 40.6296 5.15627L45.8073 7.62823C46.8326 8.11151 47.9309 8.29113 49.0291 8.29569C49.7349 8.29569 50.4406 8.21578 51.1286 8.0491C51.8134 7.88091 52.4812 7.62899 53.104 7.24922L58.3919 4.00477C58.5966 3.87919 58.8572 3.8046 59.1465 3.8046C59.3893 3.8046 59.6406 3.85864 59.8554 3.95682C60.0702 4.055 60.2447 4.19123 60.3688 4.34877L65.7917 11.1901C65.984 11.4267 66.1236 11.8179 66.1221 12.2403C66.1252 12.7145 65.946 13.1681 65.7118 13.4147L64.8936 14.3059L63.5875 13.0258C63.3603 12.8028 62.9919 12.8028 62.7646 13.0258C62.5374 13.2488 62.5374 13.6103 62.7646 13.8333L64.1126 15.156L62.3419 17.0876L59.7802 14.5738C59.5529 14.3508 59.1845 14.3508 58.9573 14.5738C58.73 14.7968 58.73 15.1583 58.9573 15.3813L61.5625 17.9377L59.7903 19.8693L57.7179 17.835C57.4907 17.612 57.1223 17.612 56.895 17.835C56.6678 18.058 56.6678 18.4195 56.895 18.6425L59.0116 20.7194L57.2828 22.6031L53.9641 19.5763C52.6223 18.3556 50.4709 16.6256 48.988 15.5746L43.0362 11.3681C42.4483 10.9526 41.8046 10.6702 41.143 10.4838C40.4822 10.2988 39.8012 10.2106 39.1179 10.2098C37.9608 10.2144 36.7881 10.4571 35.7294 11.0774L33.5803 12.3514C33.3802 12.4694 33.132 12.5372 32.859 12.5372C32.6163 12.5372 32.3634 12.4816 32.1486 12.3796C31.9322 12.2784 31.7577 12.1391 31.6351 11.9747L31.1597 11.3461L31.1582 11.3446C31.0038 11.1391 30.9309 10.9077 30.9294 10.6596C30.9325 10.292 31.0961 9.94418 31.3978 9.7227L36.2638 6.12207ZM8.15834 28.8241L8.11103 28.7792L8.10793 28.7769L8.10638 28.7762C7.70928 28.404 7.51073 27.907 7.50918 27.3986C7.51073 26.9199 7.68524 26.4549 8.04123 26.0873L13.6355 20.3328C14.014 19.9431 14.5204 19.7476 15.0401 19.746C15.5264 19.7468 16.0018 19.9196 16.3764 20.2674L16.4221 20.3107L16.4252 20.3138C16.8223 20.6852 17.0209 21.1822 17.0224 21.6921C17.0209 22.1708 16.8448 22.6373 16.4888 23.0042L10.8992 28.7564C10.5208 29.146 10.0128 29.3424 9.49311 29.3432C9.00605 29.3424 8.53062 29.1712 8.15834 28.8241ZM15.4581 34.0694L14.2691 35.2925C13.8907 35.6829 13.3842 35.8785 12.8646 35.8792C12.3767 35.8785 11.9013 35.7057 11.5282 35.3572L10.9326 34.8008C10.5339 34.4294 10.3354 33.9324 10.3346 33.4225C10.3362 32.9446 10.5107 32.478 10.8667 32.1112L18.3316 24.4289C18.7101 24.0392 19.2166 23.8444 19.7362 23.8429C20.224 23.8444 20.6995 24.0156 21.0725 24.365L21.6682 24.9221C22.0653 25.2943 22.2638 25.7905 22.2654 26.3004C22.2654 26.7783 22.0893 27.2456 21.7333 27.6125L20.5459 28.834C20.5188 28.8606 20.487 28.8797 20.4598 28.9071L15.5411 33.9659C15.5093 33.9986 15.4883 34.0367 15.4581 34.0694ZM22.4957 36.7705L20.6111 38.7112C20.2326 39.1009 19.7246 39.2965 19.2049 39.298C18.7186 39.2965 18.2417 39.1245 17.8686 38.7751L17.2885 38.2325C16.8898 37.8603 16.6913 37.3633 16.6905 36.8534C16.692 36.4196 16.8433 35.9987 17.1357 35.6509L22.2328 30.4049C22.6012 30.0723 23.0642 29.898 23.5443 29.8972C24.0321 29.898 24.5076 30.0707 24.8822 30.4201L25.4608 30.962C25.8579 31.3334 26.0564 31.8296 26.058 32.3395C26.0564 32.8083 25.8865 33.2657 25.5445 33.628C25.5368 33.6371 22.5407 36.7149 22.5407 36.7149C22.5244 36.7316 22.512 36.7522 22.4957 36.7705ZM30.0336 37.8763L27.0569 40.9404C26.6784 41.33 26.1704 41.5256 25.6523 41.5272C25.1645 41.5256 24.6891 41.3536 24.3145 41.0043L24.2904 40.9815C23.8918 40.6086 23.6932 40.1116 23.6924 39.6017C23.694 39.1458 23.8576 38.7036 24.1803 38.3459C24.1803 38.3459 27.2236 35.2095 27.2314 35.2019C27.6068 34.8305 28.0993 34.6417 28.6065 34.6402C29.0943 34.6417 29.5698 34.813 29.9444 35.1623L29.97 35.1874C30.3671 35.5588 30.5656 36.0551 30.5672 36.5642C30.5648 37.0422 30.3896 37.5087 30.0336 37.8763ZM57.4558 30.532L57.1967 30.8052C56.8182 31.2047 56.3033 31.4072 55.7743 31.4087C55.3276 31.4072 54.8925 31.2565 54.5334 30.9612L47.1289 24.2242C46.6597 23.7949 45.9229 23.8216 45.4855 24.2835C45.048 24.7448 45.0752 25.4678 45.546 25.8963L53.553 33.1828C53.9602 33.5557 54.1665 34.061 54.1681 34.5786C54.1665 35.0489 53.9982 35.5079 53.6531 35.8732L53.0955 36.4622C52.7154 36.8626 52.2004 37.065 51.673 37.0665C51.1945 37.065 50.7261 36.8991 50.3553 36.5612L42.3498 29.264C41.879 28.8348 41.1422 28.8614 40.7048 29.3234C40.2681 29.7853 40.2961 30.5084 40.7668 30.9361L47.7804 37.3291C48.1744 37.6997 48.376 38.1944 48.3776 38.7036C48.376 39.1724 48.2062 39.6321 47.8626 39.9959L47.3019 40.5872C46.9218 40.9883 46.4068 41.1908 45.8764 41.1923C45.3978 41.1915 44.9294 41.0256 44.5571 40.6885L37.2465 34.0359C36.7757 33.6074 36.0389 33.6348 35.603 34.0968C35.1671 34.5588 35.1943 35.2818 35.6651 35.7103L39.384 39.0978C39.7958 39.473 40.0037 39.9807 40.0037 40.4974C40.0037 40.9617 39.8369 41.4123 39.4995 41.7707C39.1257 42.165 38.6177 42.3636 38.0934 42.3651C37.6133 42.3636 37.1418 42.1969 36.7679 41.8567L32.5945 38.1001C32.7931 37.6054 32.8931 37.0817 32.8931 36.5619C32.8931 35.4622 32.4511 34.3518 31.5754 33.5329L31.5692 33.5268L31.5436 33.5032L31.5498 33.5093C30.7269 32.7383 29.659 32.354 28.6065 32.3555C28.5321 32.3555 28.4568 32.373 28.3824 32.3768C28.3824 32.3639 28.3855 32.3509 28.3855 32.3372C28.387 31.2375 27.9449 30.1271 27.0678 29.3081L26.4892 28.7655C25.8726 28.1894 25.1211 27.8301 24.34 27.6855C24.5006 27.2357 24.5913 26.7669 24.5913 26.2996C24.5929 25.1999 24.1508 24.0887 23.2736 23.269L22.678 22.7119C21.8551 21.9417 20.7887 21.5581 19.7362 21.5597C19.6028 21.5597 19.471 21.5855 19.3391 21.5985C19.3151 20.5307 18.8815 19.4606 18.0315 18.6645L17.9826 18.6174C17.1597 17.8464 16.0917 17.4628 15.0393 17.4636C13.9186 17.4628 12.787 17.8966 11.9509 18.7574L10.9039 19.8351L4.2657 14.2534C4.00356 14.0319 3.88101 13.7389 3.87791 13.4268C3.87946 13.1666 3.96555 12.9215 4.1579 12.7061L10.5867 5.60911C10.7472 5.42949 11.0257 5.23238 11.3747 5.09386C11.7198 4.95382 12.1293 4.87543 12.4923 4.87695C12.8118 4.87543 13.0918 4.9348 13.2857 5.01775L16.8154 6.50184C17.9485 6.9699 19.1848 7.14419 20.4296 7.15028C21.6744 7.14419 22.9107 6.97067 24.0453 6.50184L27.5734 5.01851C27.9837 4.8389 28.719 4.69886 29.4472 4.70419C30.1817 4.69658 30.9077 4.84727 31.3086 5.01851L29.0626 6.67917C27.7433 7.65715 27.0491 9.15723 27.0507 10.6565C27.0507 11.6787 27.3749 12.7267 28.0442 13.611L28.0427 13.6095L28.5181 14.2389C29.047 14.9368 29.7311 15.4627 30.4764 15.8113C31.2233 16.1599 32.0338 16.3387 32.8575 16.3395C33.7812 16.3395 34.7297 16.1096 35.5829 15.6058L37.732 14.331C38.0166 14.156 38.5518 14.0075 39.1164 14.0121C39.4483 14.0113 39.7842 14.0578 40.075 14.14C40.3674 14.2206 40.6086 14.3386 40.7692 14.4528L46.721 18.6592C48.0069 19.5657 50.1638 21.3009 51.3248 22.3603L53.3382 24.196L53.3475 24.1869L57.3526 27.84C57.7613 28.2122 57.9676 28.7176 57.9692 29.2358C57.9692 29.7077 57.7994 30.1666 57.4558 30.532Z" fill="#0C8543"/>
</svg>
